<svg xmlns:dc="http://purl.org/dc/elements/1.1/" xmlns:cc="http://creativecommons.org/ns#" xmlns:rdf="http://www.w3.org/1999/02/22-rdf-syntax-ns#" xmlns:svg="http://www.w3.org/2000/svg" xmlns="http://www.w3.org/2000/svg" version="1.1" id="svg10" xml:space="preserve" width="600" height="622.72998" viewBox="0 0 600 622.72998"><metadata id="metadata16" fill="#000000"><rdf:RDF fill="#000000"><cc:Work rdf:about="" fill="#000000"><dc:format fill="#000000">image/svg+xml</dc:format><dc:type rdf:resource="http://purl.org/dc/dcmitype/StillImage" fill="#000000"/><dc:title fill="#000000"/></cc:Work></rdf:RDF></metadata><defs id="defs14" fill="#000000"><clipPath clipPathUnits="userSpaceOnUse" id="clipPath30" fill="#000000"><path d="M 0,792 H 612 V 0 H 0 Z" id="path28" fill="#000000"/></clipPath></defs><g id="g18" transform="matrix(1.3333333,0,0,-1.3333333,0,1056)"><g id="g20"><g id="g22"><g id="g24"><g id="g26" clip-path="url(#clipPath30)"><g id="g706" transform="matrix(10.379426,0,0,10.379426,-5342.2221,-7043.7306)"><g id="g38" transform="translate(553.7944,730.5117)"><path d="m 0,0 c -0.265,-9.124 -7.964,-16.444 -17.421,-16.444 -9.622,0 -17.425,7.581 -17.425,16.932 l -0.008,12.42 c -2.651,-3.494 -4.247,-7.749 -4.247,-12.42 0,-11.634 9.707,-21.068 21.68,-21.068 11.799,0 21.374,9.194 21.657,20.593 z m 4.254,1.087 c -0.327,11.356 -9.906,20.465 -21.675,20.465 -3.98,0 -7.68,-1.085 -11.07,-2.993 l 0.013,-4.933 c 3.163,2.406 6.946,3.791 11.057,3.791 9.419,0 17.113,-7.279 17.437,-16.351 z" style="fill:#ffffff;fill-opacity:1;fill-rule:nonzero;stroke:none" id="path40"/></g><g id="g42" transform="translate(536.3302,741.5314)"><path d="m 0,0 c -5.986,0 -10.84,-4.717 -10.84,-10.532 0,-5.82 4.854,-10.534 10.84,-10.534 5.987,0 10.843,4.714 10.843,10.534 C 10.843,-4.717 5.987,0 0,0 m 0,-16.878 c -3.605,0 -6.528,2.839 -6.528,6.346 0,3.501 2.923,6.342 6.528,6.342 3.605,0 6.53,-2.841 6.53,-6.342 0,-3.507 -2.925,-6.346 -6.53,-6.346" style="fill:#ffffff;fill-opacity:1;fill-rule:nonzero;stroke:none" id="path44"/></g><g id="g46" transform="translate(536.3302,746.9161)"><path d="M 0,0 C -4.767,0 -9.057,-1.978 -12.051,-5.138 V 8.013 h -4.332 v -23.93 c 0,-8.794 7.335,-15.919 16.383,-15.919 9.048,0 16.386,7.125 16.386,15.919 C 16.386,-7.127 9.048,0 0,0 m 0,-27.648 c -6.666,0 -12.072,5.252 -12.072,11.731 l 0.021,0.673 c 0.359,6.163 5.617,11.056 12.051,11.056 6.669,0 12.074,-5.251 12.074,-11.729 0,-6.479 -5.405,-11.731 -12.074,-11.731" style="fill:#ffffff;fill-opacity:1;fill-rule:nonzero;stroke:none" id="path48"/></g></g></g></g></g></g></g></svg>